# xmcd
#
# Track frame offsets:
# 150
# 9875
# 19481
# 32048
# 41311
# 51749
# 64097
# 75188
# 84884
# 95059
# 105727
# 117983
#
# Disc length: 1719 seconds
#
# Revision: 0
# Processed by: cddbd v1.5.2PL0 Copyright (c) Steve Scherf et al.
# Submitted via: Axialis_AX_CDPlayer 2.6
#
DISCID=8d06b50c
DTITLE=The  Royal  Rhythmaires - Shuck and Jive
DYEAR=1900
DGENRE=
TTITLE0=Good Loojkin'
TTITLE1=Humdinger
TTITLE2=Cajun Boy
TTITLE3=Shuck And Jive
TTITLE4=You've Changed My Love
TTITLE5=Johnston Brother
TTITLE6=That's Why I Cry
TTITLE7=It Rocks! It Rolls! It Swings!
TTITLE8=Baby
TTITLE9=Party Time
TTITLE10=Up The Line
TTITLE11=Love Don't Love Nobody
EXTD=
EXTT0=
EXTT1=
EXTT2=
EXTT3=
EXTT4=
EXTT5=
EXTT6=
EXTT7=
EXTT8=
EXTT9=
EXTT10=
EXTT11=
PLAYORDER=
